<?xml version="1.0" standalone="no"?>
<!DOCTYPE svg PUBLIC "-//W3C//DTD SVG 20010904//EN"
 "http://www.w3.org/TR/2001/REC-SVG-20010904/DTD/svg10.dtd">
<svg version="1.0" xmlns="http://www.w3.org/2000/svg"
 width="300.000000pt" height="300.000000pt" viewBox="0 0 300.000000 300.000000"
 preserveAspectRatio="xMidYMid meet">
<metadata>
Created by potrace 1.10, written by Peter Selinger 2001-2011
</metadata>
<g transform="translate(0.000000,300.000000) scale(0.100000,-0.100000)"
fill="#000000" stroke="none">
<path d="M323 2890 c-77 -18 -151 -80 -196 -164 l-22 -41 -3 -1164 c-3 -1290
-6 -1224 63 -1313 23 -31 55 -56 96 -77 l62 -31 1181 0 c1134 0 1183 1 1222
19 60 27 119 84 148 144 l26 51 0 1181 0 1182 -31 62 c-21 41 -46 73 -76 96
-90 68 -24 65 -1292 64 -630 -1 -1160 -4 -1178 -9z m1333 -251 c634 -88 1081
-689 979 -1316 -39 -243 -140 -444 -308 -620 -174 -181 -380 -293 -624 -339
-131 -24 -364 -15 -496 19 -372 98 -675 381 -798 746 -42 124 -59 228 -59 366
0 240 62 447 195 650 50 77 222 250 301 303 241 162 531 230 810 191z"/>
<path d="M1402 2438 c3 -45 6 -53 23 -53 15 0 21 8 23 33 2 24 8 32 23 32 18
0 19 -8 19 -165 0 -140 -2 -165 -15 -165 -9 0 -15 -9 -15 -25 0 -24 3 -25 55
-25 52 0 55 1 55 25 0 16 -6 25 -15 25 -13 0 -15 25 -15 165 0 157 1 165 19
165 15 0 21 -8 23 -32 2 -25 8 -33 23 -33 17 0 20 8 23 53 l3 52 -116 0 -116
0 3 -52z"/>
<path d="M1823 2414 c-3 -9 0 -20 7 -24 19 -12 -96 -310 -120 -310 -10 0 -20
-8 -22 -18 -4 -15 3 -22 31 -32 20 -7 41 -15 47 -17 15 -6 27 27 15 41 -12 14
99 306 116 306 7 0 17 9 22 19 9 16 5 21 -29 35 -50 20 -59 20 -67 0z"/>
<path d="M1077 2402 c-28 -13 -37 -22 -35 -37 2 -12 10 -19 18 -18 21 4 148
-296 131 -306 -12 -8 -5 -41 9 -41 9 0 142 58 148 65 2 2 -4 25 -13 50 -13 32
-22 44 -32 40 -8 -3 -17 -5 -19 -5 -3 0 -2 -15 1 -34 6 -29 4 -35 -15 -41 -12
-4 -23 -5 -25 -3 -1 1 -30 68 -64 147 -41 100 -57 148 -51 157 10 12 3 45 -9
43 -3 0 -23 -8 -44 -17z"/>
<path d="M2125 2221 c-11 -5 -69 -60 -128 -124 -125 -134 -132 -155 -70 -203
43 -33 76 -33 110 -1 17 15 20 23 12 34 -15 17 -38 17 -45 -2 -4 -8 -12 -15
-19 -15 -15 0 -48 36 -44 48 2 5 51 59 109 120 l105 110 29 -24 28 -25 -21
-23 c-20 -21 -20 -24 -6 -36 14 -12 21 -8 53 23 l37 37 -47 45 c-47 45 -65 51
-103 36z"/>
<path d="M780 2200 c-8 -10 -32 -39 -54 -64 -32 -38 -36 -49 -26 -61 10 -11
16 -12 26 -4 10 9 40 -13 134 -96 71 -63 119 -113 116 -121 -3 -7 2 -18 10
-25 13 -10 23 -4 62 41 69 78 69 77 31 116 -29 30 -35 32 -48 19 -13 -13 -12
-17 4 -35 15 -16 17 -25 9 -38 -18 -28 -37 -23 -88 23 -47 42 -49 45 -33 63
21 23 21 28 1 36 -10 4 -25 -1 -35 -10 -16 -15 -21 -13 -63 26 -49 46 -55 60
-31 80 13 11 20 9 39 -9 24 -22 25 -22 35 -3 8 16 4 24 -22 50 -38 37 -46 38
-67 12z"/>
<path d="M1545 1924 c-16 -8 -37 -22 -46 -30 -20 -18 -39 -17 -63 1 -24 18
-95 29 -134 20 -74 -16 -142 -136 -128 -229 9 -60 50 -141 112 -222 30 -39 54
-73 54 -76 0 -3 -39 6 -87 20 -121 34 -270 36 -328 5 -79 -42 -115 -98 -115
-180 0 -54 22 -105 61 -137 26 -22 28 -29 23 -70 -9 -59 0 -88 37 -131 22 -25
48 -40 87 -51 112 -33 202 4 333 136 l86 87 7 -76 c13 -161 64 -278 159 -368
l61 -58 14 48 13 48 -40 44 c-72 78 -111 185 -111 303 l0 65 78 -74 c42 -41
97 -90 122 -110 45 -37 121 -69 163 -69 116 0 211 109 192 221 -6 35 -4 42 19
60 99 78 63 241 -69 312 -32 18 -56 22 -125 21 -71 -1 -101 -6 -182 -36 -54
-20 -98 -34 -98 -31 0 3 18 25 40 51 55 61 117 189 125 255 21 170 -132 318
-260 251z"/>
<path d="M2292 1882 c-80 -34 -88 -47 -62 -104 10 -23 16 -46 12 -50 -4 -3
-34 -17 -67 -31 l-60 -25 -12 21 c-20 35 -15 56 12 63 28 7 30 13 13 36 -12
14 -17 14 -55 -3 -46 -20 -51 -29 -28 -52 8 -8 12 -17 9 -20 -3 -3 1 -21 9
-40 21 -50 57 -56 138 -22 35 15 73 35 83 45 18 17 18 20 2 59 -22 56 -21 58
22 77 82 35 78 35 95 -2 17 -34 17 -34 -11 -46 -15 -7 -28 -13 -30 -14 -2 -1
1 -11 7 -23 11 -19 13 -19 49 -5 51 22 58 30 45 56 -6 13 -17 38 -23 56 -23
59 -54 64 -148 24z"/>
<path d="M566 1892 c-3 -3 -6 -13 -6 -22 0 -9 -7 -31 -16 -49 -19 -39 -12 -76
19 -94 12 -8 86 -36 165 -63 134 -46 144 -48 169 -34 16 9 32 31 40 57 13 37
12 45 -2 67 -16 24 -75 53 -75 36 0 -4 -3 -15 -6 -24 -4 -10 2 -17 20 -22 27
-6 30 -14 20 -52 -8 -28 -4 -29 -189 34 l-133 46 11 34 c10 32 13 34 44 28 28
-5 33 -3 33 14 0 15 -12 24 -44 35 -25 8 -47 13 -50 9z"/>
</g>
</svg>
