<?xml version="1.0" standalone="no"?>
<!DOCTYPE svg PUBLIC "-//W3C//DTD SVG 20010904//EN"
 "http://www.w3.org/TR/2001/REC-SVG-20010904/DTD/svg10.dtd">
<svg version="1.0" xmlns="http://www.w3.org/2000/svg"
 width="300.000000pt" height="300.000000pt" viewBox="0 0 300.000000 300.000000"
 preserveAspectRatio="xMidYMid meet">
<metadata>
Created by potrace 1.10, written by Peter Selinger 2001-2011
</metadata>
<g transform="translate(0.000000,300.000000) scale(0.100000,-0.100000)"
fill="#000000" stroke="none">
<path d="M1605 2114 c-16 -2 -54 -7 -84 -10 l-54 -6 7 -56 c12 -105 6 -99 109
-105 51 -3 114 -13 142 -24 l50 -18 -115 -6 c-134 -7 -163 -14 -156 -37 3 -9
8 -38 11 -63 l7 -45 111 -1 c86 0 127 -6 177 -22 132 -43 129 -48 -31 -53
-110 -4 -178 -13 -287 -37 -78 -17 -146 -31 -150 -31 -4 0 53 -20 127 -45 330
-111 579 -286 805 -567 43 -54 82 -98 87 -98 4 0 24 14 43 30 41 37 61 86 47
121 -6 17 -5 32 5 49 7 14 13 35 14 47 0 16 12 29 41 43 25 13 39 26 36 34 -3
8 -9 49 -12 93 l-7 79 69 27 70 28 92 247 c50 136 91 249 91 252 0 3 -53 5
-118 5 -126 1 -109 -3 -371 90 -177 63 -258 76 -506 80 -121 2 -233 1 -250 -1z
m1016 -365 c52 -19 70 -39 36 -39 -7 0 -29 -5 -50 -11 l-38 -10 6 -72 6 -72
-28 30 c-15 17 -39 44 -53 61 l-25 32 -72 -18 c-40 -9 -73 -15 -73 -12 0 3 18
27 40 53 22 26 40 51 40 55 0 4 -16 26 -35 50 -19 23 -35 45 -35 47 0 3 29 -4
65 -16 l65 -21 38 37 37 38 9 -55 9 -55 58 -22z m-313 -265 l37 -17 -45 -8
c-30 -6 -53 -18 -69 -36 -22 -25 -22 -27 -5 -34 11 -4 52 -8 92 -8 53 -1 72 2
72 12 0 21 46 59 66 55 15 -3 21 -19 30 -88 20 -139 23 -130 -41 -130 -59 0
-71 -13 -30 -32 36 -16 32 -38 -7 -38 -18 0 -44 -10 -58 -21 l-25 -21 33 6
c19 3 45 3 58 0 20 -5 22 -9 13 -25 -5 -10 -19 -19 -30 -19 l-20 0 20 -29 c12
-16 21 -35 21 -43 0 -20 -29 -58 -44 -58 -7 0 -42 37 -78 83 -76 95 -168 189
-232 238 -50 37 -52 49 -14 63 38 13 110 -25 150 -80 17 -24 33 -42 36 -40 2
3 1 23 -3 46 -6 36 -17 49 -86 106 -43 36 -79 69 -79 73 0 14 37 42 66 51 48
14 132 11 172 -6z"/>
<path d="M1225 2055 c-88 -18 -230 -52 -315 -75 -256 -67 -473 -119 -608 -144
-170 -32 -143 -41 118 -40 212 1 330 14 560 64 225 49 397 80 448 80 36 0 36
0 19 85 -11 53 -16 60 -37 62 -14 1 -97 -13 -185 -32z"/>
<path d="M1405 1850 c-296 -78 -437 -110 -515 -120 -93 -11 -127 -20 -79 -20
13 -1 71 -5 128 -10 68 -6 149 -6 230 1 118 9 321 36 328 43 2 1 -2 28 -8 59
-13 62 -18 64 -84 47z"/>
</g>
</svg>
